# xmcd
#
# Track frame offsets:
# 165
# 16459
# 27342
# 40529
# 52630
# 66122
# 80818
# 91498
# 105429
# 117665
#
# Disc length: 1799 seconds
#
#
# Revision: 0
# Processed by: cddbd v1.5.1PL0 Copyright (c) Steve Scherf et al.
# Submitted via: FreeRIP 2.90 
#
DISCID=7707050a
DTITLE=Almir Sater - Almir Sater
DYEAR=1981
DGENRE=Country
TTITLE0=Estradeiro
TTITLE1=Canta Viola
TTITLE2=Semente
TTITLE3=O Carrapicho e a Pimenta
TTITLE4=Flor do Amor
TTITLE5=Aqui Agora Crianças
TTITLE6=Velhos Amigos
TTITLE7=Luz da Fé
TTITLE8=Bicho Preguiça
TTITLE9=No Quintal de Casa
EXTD=
EXTT0=
EXTT1=
EXTT2=
EXTT3=
EXTT4=
EXTT5=
EXTT6=
EXTT7=
EXTT8=
EXTT9=
PLAYORDER=
